HIERARCHY
ROOT hip
{
	OFFSET 0.000000 0.000000 0.000000 
	CHANNELS 6 Xposition Yposition Zposition Xrotation Zrotation Yrotation
	JOINT abdomen
	{
		OFFSET 0.000000 3.402643 0.000000 
		CHANNELS 3 Xrotation Zrotation Yrotation
		JOINT chest
		{
			OFFSET 0.000000 8.438565 -0.680529 
			CHANNELS 3 Xrotation Zrotation Yrotation
			JOINT neck
			{
				OFFSET 0.000000 10.207942 -0.272212 
				CHANNELS 3 Xrotation Zrotation Yrotation
				JOINT head
				{
					OFFSET 0.000000 3.130431 0.000000 
					CHANNELS 3 Xrotation Zrotation Yrotation
					End Site
					{
						OFFSET 0.000000 3.130435 0.000000 
					}
				}
			}
			JOINT lCollar
			{
				OFFSET 3.470700 6.669187 -0.816635 
				CHANNELS 3 Yrotation Zrotation Xrotation
				JOINT lShldr
				{
					OFFSET 3.198488 0.000000 0.000000 
					CHANNELS 3 Zrotation Yrotation Xrotation
					JOINT lForeArm
					{
						OFFSET 10.139888 0.000000 0.000000 
						CHANNELS 3 Yrotation Zrotation Xrotation
						JOINT lHand
						{
							OFFSET 8.370511 0.000000 0.000000 
							CHANNELS 3 Zrotation Yrotation Xrotation
							End Site
							{
								OFFSET 4.083176 0.000000 0.000000 
							}
						}
					}
				}
			}
			JOINT rCollar
			{
				OFFSET -3.470700 6.669187 -0.816635 
				CHANNELS 3 Yrotation Zrotation Xrotation
				JOINT rShldr
				{
					OFFSET -3.198488 0.000000 0.000000 
					CHANNELS 3 Zrotation Yrotation Xrotation
					JOINT rForeArm
					{
						OFFSET -10.139888 0.000000 0.000000 
						CHANNELS 3 Yrotation Zrotation Xrotation
						JOINT rHand
						{
							OFFSET -8.370511 0.000000 0.000000 
							CHANNELS 3 Zrotation Yrotation Xrotation
							End Site
							{
								OFFSET -4.083176 0.000000 0.000000 
							}
						}
					}
				}
			}
		}
	}
	JOINT lThigh
	{
		OFFSET 5.308129 -1.633274 1.361059 
		CHANNELS 3 Xrotation Zrotation Yrotation
		JOINT lShin
		{
			OFFSET -2.041588 -20.007561 0.000000 
			CHANNELS 3 Xrotation Zrotation Yrotation
			JOINT lFoot
			{
				OFFSET 0.000000 -19.190928 -1.224953 
				CHANNELS 3 Xrotation Yrotation Zrotation
				End Site
				{
					OFFSET 0.000000 -2.449906 4.627600 
				}
			}
		}
	}
	JOINT rThigh
	{
		OFFSET -5.308129 -1.633274 1.361059 
		CHANNELS 3 Xrotation Zrotation Yrotation
		JOINT rShin
		{
			OFFSET 2.041588 -20.007561 0.000000 
			CHANNELS 3 Xrotation Zrotation Yrotation
			JOINT rFoot
			{
				OFFSET 0.000000 -19.190928 -1.224953 
				CHANNELS 3 Xrotation Yrotation Zrotation
				End Site
				{
					OFFSET 0.000000 -2.449906 4.627600 
				}
			}
		}
	}
}
MOTION
Frames: 10
Frame Time: 0.033333
0.031329 51.519333 -2.624273 0.134842 -1.493678 -1.426315 0.000000 0.000000 0.000000 -1.228948 -1.103458 -0.586205 4.565387 -0.732276 -1.142734 10.706859 1.269433 -0.712932 -0.909343 8.465593 -0.523370 -10.984858 2.615633 -30.820044 0.948236 -5.194712 19.417551 4.456806 -1.661082 -3.614751 -0.145932 -9.403356 -0.533021 14.870620 -0.163321 -31.499128 -0.368109 1.000876 41.119694 -6.786129 7.202343 -3.972634 5.280125 14.585912 13.937281 0.532042 -1.459204 -3.048602 -3.322795 0.356909 -12.382600 0.917506 -6.884184 -8.423163 7.128284 4.920259 -11.591010 -6.012088 -0.279290 4.810771 
-0.412863 51.527981 -2.732708 0.523926 -1.201155 -0.302873 0.000000 0.000000 0.000000 -1.593339 -1.044767 -0.986520 4.481237 -0.712655 -1.474738 10.858929 1.562372 -0.732682 -1.124899 8.386748 -0.858860 -11.139940 2.699912 -31.073917 0.976938 -5.121389 19.337084 4.552742 -1.624997 -3.625033 -0.809072 -9.363702 -0.889368 14.751344 -0.490288 -31.833660 -0.367071 1.020689 40.338573 -6.669725 7.052545 -3.960287 4.665631 14.889009 13.872005 -0.061879 -1.587965 -4.471814 -2.801632 0.260897 -12.780515 0.174896 -6.809191 -8.619923 8.017109 5.271777 -12.336370 -6.693339 -0.266320 4.270617 
-0.805442 51.508717 -2.850415 0.913086 -0.976453 0.859417 0.000000 0.000000 0.000000 -1.968875 -0.917673 -1.455361 4.403838 -0.585627 -1.865337 10.733396 1.533091 -0.693372 -1.600728 8.453087 -1.205226 -11.323394 3.066668 -30.985983 0.912600 -5.119617 19.101074 4.444876 -1.622067 -3.621242 -1.407314 -9.424894 -1.256757 14.789186 -0.816705 -32.076794 -0.376497 0.923700 40.435215 -6.614341 7.125517 -3.952001 3.941136 15.168248 13.605345 -0.413172 -1.577449 -6.154083 -2.486380 0.275444 -13.203608 -0.771327 -6.722082 -8.671750 9.261363 5.442793 -13.182408 -7.503445 -0.289065 3.980969 
-1.134129 51.464924 -2.960163 1.170332 -0.849049 2.080284 0.000000 0.000000 0.000000 -2.116144 -0.702764 -1.836159 4.281932 -0.370816 -2.216877 10.279545 1.230396 -0.625066 -2.044800 8.711467 -1.333297 -11.600713 3.092198 -30.956406 0.864950 -5.155320 19.013561 4.634884 -1.844926 -3.635225 -1.968901 -9.359126 -1.413700 14.578112 -1.190994 -32.333614 -0.404858 0.835595 40.473473 -6.344956 7.044546 -3.927279 3.073587 15.394500 13.160430 -0.345242 -1.359283 -7.725886 -2.443422 0.305844 -13.641714 -1.698083 -6.660833 -8.803649 10.716003 5.657632 -14.100104 -8.385798 -0.309261 3.809422 
-1.440907 51.429718 -3.070006 1.259246 -0.760690 2.978772 0.000000 0.000000 0.000000 -2.142638 -0.458720 -1.943453 4.353950 -0.204912 -2.304708 9.569010 1.064396 -0.595782 -2.376158 8.874498 -1.313717 -11.691994 3.014756 -30.567982 0.782007 -5.276572 19.007368 4.915448 -2.111509 -3.648501 -2.391294 -9.200830 -1.451874 14.202919 -1.517127 -32.448414 -0.431826 0.710731 40.745815 -6.295335 6.860930 -3.921656 2.389660 15.646360 12.887146 -0.043524 -1.244373 -8.944737 -2.477570 0.259206 -13.977098 -2.342261 -6.506323 -8.841074 11.811723 5.757454 -14.870242 -8.975898 -0.293051 3.629334 
-1.708645 51.428581 -3.169951 1.201916 -0.643391 3.408317 0.000000 0.000000 0.000000 -2.110008 -0.273285 -1.914087 4.457243 -0.107343 -2.197280 9.336787 1.005820 -0.507734 -2.451702 8.825562 -1.273584 -11.594268 3.010868 -30.193363 0.715703 -5.372389 19.048910 5.093056 -2.285416 -3.670975 -2.462674 -9.122035 -1.422906 13.934943 -1.732861 -32.448193 -0.440249 0.690586 40.745663 -6.374750 6.708472 -3.925476 2.058706 15.786835 12.795913 0.200598 -1.216883 -9.728654 -2.514969 0.301398 -14.130105 -2.605141 -6.231489 -8.723055 12.205904 5.663077 -15.535859 -9.203863 -0.309131 3.451653 
-1.901258 51.424042 -3.237336 1.025307 -0.448257 3.750114 0.000000 0.000000 0.000000 -2.004939 -0.204966 -1.894554 4.560184 0.009759 -2.128906 9.093982 0.966767 -0.449155 -2.456069 8.869992 -1.175687 -11.526795 2.889309 -30.325245 0.692394 -5.346484 18.900343 5.147662 -2.380251 -3.672105 -2.444034 -8.999299 -1.323486 13.788125 -1.783419 -32.790382 -0.443884 0.622787 40.608284 -6.454776 6.565707 -3.929895 1.990315 15.697682 12.594656 0.412594 -1.078358 -10.063478 -2.650417 0.286164 -14.131692 -2.763175 -6.169264 -8.693059 12.704398 5.575970 -16.016258 -9.424399 -0.309153 3.367330 
-2.030698 51.417759 -3.287524 0.993675 -0.175358 3.974621 0.000000 0.000000 0.000000 -2.073048 -0.234270 -1.718776 4.682817 0.136639 -1.962885 9.006813 1.005836 -0.390565 -2.520969 9.205256 -1.215709 -11.651674 2.768209 -30.344744 0.669250 -5.372642 18.783651 5.183957 -2.328326 -3.678758 -2.496738 -8.984827 -1.411705 13.918396 -1.801162 -33.076057 -0.432790 0.580789 40.559109 -6.609713 6.703176 -3.944240 1.903651 15.458162 12.309421 0.755377 -0.992806 -10.295274 -2.955600 0.372927 -14.078634 -3.045651 -6.294327 -8.741047 13.247506 5.543270 -16.214256 -9.671958 -0.305438 3.317355 
-2.098490 51.414478 -3.321499 1.067937 0.048704 4.091804 0.000000 0.000000 0.000000 -2.219788 -0.224507 -1.728541 4.566505 0.126896 -1.718746 9.126501 1.162101 -0.214800 -2.397715 9.287477 -1.364965 -11.564936 2.827332 -30.292675 0.649937 -5.359752 18.841959 5.354369 -2.396219 -3.683255 -2.556625 -9.007523 -1.539985 13.970360 -1.442188 -33.251015 -0.430402 0.595513 40.432293 -6.566906 6.814204 -3.941519 1.814354 15.092563 12.003997 1.171931 -0.963329 -10.548760 -3.483038 0.425617 -13.932356 -3.366827 -6.448128 -8.789869 13.640386 5.496481 -16.389263 -9.829666 -0.314007 3.314609 
-2.120464 51.397484 -3.325207 1.019159 0.048700 4.150397 0.000000 0.000000 0.000000 -2.254012 -0.058565 -1.806650 4.478295 0.156195 -1.513666 9.014226 1.083984 0.029476 -2.286001 9.266598 -1.393961 -11.271572 2.964729 -30.341909 0.629709 -5.327786 18.958601 5.458379 -2.497613 -3.687535 -2.563018 -8.772099 -1.559276 13.709368 -1.020290 -33.237514 -0.418125 0.657196 40.393654 -6.409244 6.815231 -3.921948 1.942789 14.783577 11.668480 1.501627 -0.808005 -11.043242 -4.101181 0.456005 -13.766461 -3.495552 -6.423642 -8.751256 13.951022 5.455646 -16.502348 -9.944197 -0.311147 3.370973 
